<svg width="127" height="23" viewBox="0 0 127 23" fill="none" xmlns="http://www.w3.org/2000/svg">
<path d="M37.3373 2.05029L40.1698 7.78863L46.504 8.71446L41.9207 13.1786L43.0023 19.4853L37.3373 16.5061L31.6723 19.4853L32.754 13.1786L28.1707 8.71446L34.5048 7.78863L37.3373 2.05029Z" fill="#FFA033" stroke="#FFA033" stroke-linecap="round" stroke-linejoin="round"/>
<path d="M11.3373 2.05029L14.1698 7.78863L20.504 8.71446L15.9207 13.1786L17.0023 19.4853L11.3373 16.5061L5.67232 19.4853L6.75399 13.1786L2.17065 8.71446L8.50482 7.78863L11.3373 2.05029Z" fill="#FFA033" stroke="#FFA033" stroke-linecap="round" stroke-linejoin="round"/>
<path d="M63.3373 2.05029L66.1698 7.78863L72.504 8.71446L67.9207 13.1786L69.0023 19.4853L63.3373 16.5061L57.6723 19.4853L58.754 13.1786L54.1707 8.71446L60.5048 7.78863L63.3373 2.05029Z" fill="#FFA033" stroke="#FFA033" stroke-linecap="round" stroke-linejoin="round"/>
<path d="M89.3373 2.05029L92.1698 7.78863L98.504 8.71446L93.9207 13.1786L95.0023 19.4853L89.3373 16.5061L83.6723 19.4853L84.754 13.1786L80.1707 8.71446L86.5048 7.78863L89.3373 2.05029Z" fill="#FFA033" stroke="#FFA033" stroke-linecap="round" stroke-linejoin="round"/>
<path d="M115.337 2.05029L118.17 7.78863L124.504 8.71446L119.921 13.1786L121.002 19.4853L115.337 16.5061L109.672 19.4853L110.754 13.1786L106.171 8.71446L112.505 7.78863L115.337 2.05029Z" stroke="#FFA033" stroke-linecap="round" stroke-linejoin="round"/>
</svg>
